<svg xmlns="http://www.w3.org/2000/svg" width="410" height="404" viewBox="0 0 410 404" fill="none">
  <path d="M399.641 59.5241L209.778 394.375C206.164 400.906 197.836 400.906 194.222 394.375L10.3591 59.5241C6.46455 52.2679 12.3025 43.766 20.2903 44.9769L205 77.5L389.71 44.9769C397.698 43.766 403.536 52.2679 399.641 59.5241Z" fill="url(#paint0_linear)"/>
  <path d="M292.965 1.57445L155.749 28.2439C152.647 28.8297 150.417 31.4821 150.328 34.6424L141.99 247.13C141.86 250.539 145.03 253.084 148.363 252.141L186.588 241.63C190.102 240.655 193.302 243.598 192.876 247.223L181.186 344.165C180.712 348.2 185.128 350.994 188.552 348.184L212.939 327.975C215.662 325.72 219.8 327.459 220.129 330.958L228.278 398.828C228.747 402.795 233.805 404.297 236.367 401.016L238.076 398.688C239.256 397.154 240.788 396.09 242.461 395.708L332.534 374.931C335.774 374.153 337.811 370.998 336.812 367.854L302.243 261.205C301.222 257.884 303.962 254.626 307.411 255.239L353.793 263.584C357.708 264.249 360.811 260.53 359.502 256.77L303.241 93.2568C302.103 89.9078 304.814 86.4654 308.356 86.8241L392.778 95.4179C396.761 95.8056 399.591 91.5304 398.113 87.7725L328.391 12.7503C326.212 10.3322 323.302 8.68929 320.114 8.07252L292.965 1.57445Z" fill="url(#paint1_linear)"/>
  <defs>
    <linearGradient id="paint0_linear" x1="6.00017" y1="32.9999" x2="235.157" y2="400.52" gradientUnits="userSpaceOnUse">
      <stop stop-color="#41D1FF"/>
      <stop offset="1" stop-color="#BD34FE"/>
    </linearGradient>
    <linearGradient id="paint1_linear" x1="194.651" y1="8.81818" x2="236.998" y2="392.799" gradientUnits="userSpaceOnUse">
      <stop stop-color="#FFEA83"/>
      <stop offset="0.0833333" stop-color="#FFDD35"/>
      <stop offset="1" stop-color="#FFA800"/>
    </linearGradient>
  </defs>
</svg>
